PathFileType	4	(X/Y/Z)	S01_0017_Gait_markers.trc
DataRate	CameraRate	NumFrames	NumMarkers	Units	OrigDataRate	OrigDataStartFrame	OrigNumFrames
250.000000	250.000000	4	54	mm	250.000000	318	364
Frame#	Time	HEAD_ANT			R_HEAD			L_HEAD			C7			R_BACK			L_BACK			STERNUM			R_ACROMION			R_HUM_PROX			R_HUM_ANT			R_HUM_POST			R_ELBOW_LAT			R_ELBOW_MED			R_FOREARM			R_WIRST_LAT			R_WRITS_MED			R_HAND			L_ACROMION			L_HUM_PROX			L_HUM_ANT			L_HUM_POST			L_ELBOW_LAT			L_ELBOW_MED			L_FOREARM			L_WRIST_LAT			L_WIRST_MED			L_HAND			R_ILIAC			SACRUM			L_ILIAC			R_GTROCH			R_THIGH__1			R_THIGH_2			R_THIGH_3			R_THIGH_4			R_SHANK_1			R_SHANK_2			R_SHANK_3			R_SHANK_4			R_HEEL			R_FOOT_LAT			R_FOOT_MED			L_GTROCH			L_THIGH_1			L_THIGH_2			L_THIGH_3			L_THIGH_4			L_SHANK_1			L_SHANK_2			L_SHANK_3			L_SHANK_4			L_HEEL			L_FOOT_LAT			L_FOOT_MED			
		X1	Y1	Z1	X2	Y2	Z2	X3	Y3	Z3	X4	Y4	Z4	X5	Y5	Z5	X6	Y6	Z6	X7	Y7	Z7	X8	Y8	Z8	X9	Y9	Z9	X10	Y10	Z10	X11	Y11	Z11	X12	Y12	Z12	X13	Y13	Z13	X14	Y14	Z14	X15	Y15	Z15	X16	Y16	Z16	X17	Y17	Z17	X18	Y18	Z18	X19	Y19	Z19	X20	Y20	Z20	X21	Y21	Z21	X22	Y22	Z22	X23	Y23	Z23	X24	Y24	Z24	X25	Y25	Z25	X26	Y26	Z26	X27	Y27	Z27	X28	Y28	Z28	X29	Y29	Z29	X30	Y30	Z30	X31	Y31	Z31	X32	Y32	Z32	X33	Y33	Z33	X34	Y34	Z34	X35	Y35	Z35	X36	Y36	Z36	X37	Y37	Z37	X38	Y38	Z38	X39	Y39	Z39	X40	Y40	Z40	X41	Y41	Z41	X42	Y42	Z42	X43	Y43	Z43	X44	Y44	Z44	X45	Y45	Z45	X46	Y46	Z46	X47	Y47	Z47	X48	Y48	Z48	X49	Y49	Z49	X50	Y50	Z50	X51	Y51	Z51	X52	Y52	Z52	X53	Y53	Z53	X54	Y54	Z54	

319	1.272	1782.183349609375	1712.065795898438	-365.0925903320309	1722.164428710938	1658.791381835938	-289.3915405273434	1724.285034179688	1662.26904296875	-435.5516967773434	1585.784301757812	1489.018432617188	-372.117523193359	1509.446899414062	1290.378295898438	-317.118225097656	1518.268310546875	1296.972534179688	-450.6481323242185	1764.1953125	1326.467895507812	-358.5736694335935	1647.751953125	1436.678100585938	-194.7836303710934	1596.9345703125	1274.076049804688	-114.0087661743161	1655.357788085938	1187.022827148438	-104.5303802490232	1534.202880859375	1192.287841796875	-111.6337966918943	1578.56103515625	1083.378662109375	-102.4833679199216	1570.2265625	1080.477172851562	-182.4457397460935	1664.899536132812	897.3980712890625	-83.48272705078105	1707.322143554688	829.8960571289062	-115.9650955200193	1633.838989257812	810.2529296875	-90.93709564208966	1696.738159179688	742.7736206054688	-60.27111053466781	1678.734985351562	1446.557373046875	-533.7772216796872	1670.090087890625	1281.013916015625	-629.8712158203122	1734.621337890625	1202.081298828125	-621.741027832031	1616.844360351562	1202.1708984375	-662.299865722656	1678.188720703125	1098.556274414063	-663.410217285156	1622.2333984375	1088.33837890625	-610.4513549804685	1795.195190429688	932.0643920898439	-632.9479980468748	1825.1962890625	874.4208984375001	-577.301574707031	1789.735717773438	848.5441894531251	-643.6266479492185	1869.447875976562	801.0741577148439	-621.6259765624998	1666.668579101562	1038.42626953125	-200.8245697021482	1535.530639648438	1017.804748535156	-368.1609191894529	1652.4267578125	1034.149291992188	-549.4860839843748	1638.027709960938	891.1423950195312	-186.8153381347654	1762.15869140625	631.712890625	-223.857452392578	1810.15478515625	665.7412109375	-222.3670959472655	1844.939575195312	571.7041015625001	-262.5531311035155	1784.486572265625	556.0559692382812	-248.1538238525389	1838.118041992188	338.9288024902344	-249.9018249511718	1895.919311523438	332.7182617187501	-268.7194519042968	1911.204223632812	249.6565551757813	-288.3602905273437	1848.656372070312	239.8014678955079	-272.8073730468749	1847.66943359375	35.66712188720711	-359.8861389160156	2013.819091796875	27.82014656066901	-285.6143493652344	2060.490966796875	56.19504928588876	-373.5390319824219	1600.834228515625	931.5014038085939	-549.2830810546873	1604.757934570312	639.7835083007814	-534.6354980468749	1558.415893554688	674.6136474609376	-545.5280761718749	1517.330932617188	581.2717285156251	-515.6953735351561	1578.782592773438	564.8507080078126	-510.6906127929686	1407.1640625	335.7668457031251	-494.4257507324218	1348.033935546875	349.0498352050782	-495.5700988769531	1299.459106445312	278.8680114746095	-474.7632446289062	1356.025024414062	249.6987152099611	-467.9108886718749	1167.104370117188	146.2370910644532	-396.5524902343749	1298.330932617188	20.32301330566416	-446.8544616699219	1336.153076171875	34.52032470703133	-344.5889282226562	
320	1.276	1787.917114257812	1712.637939453125	-364.5556640624996	1728.240600585938	1659.395141601562	-289.1117858886715	1730.128540039062	1662.788818359375	-435.1478881835934	1592.053466796875	1489.503540039062	-371.5497131347653	1515.704223632812	1290.659423828125	-316.621887207031	1524.442749023438	1297.36181640625	-450.1109924316403	1771.155883789062	1326.985107421875	-359.6090087890622	1653.919067382812	1436.829223632812	-194.3815612792966	1603.216674804688	1274.148071289062	-113.6998596191403	1661.912231445312	1187.1240234375	-104.2777862548825	1540.729858398438	1192.177856445312	-111.4609909057614	1585.409545898438	1083.525512695312	-102.2934188842771	1576.10302734375	1081.226318359375	-182.9552764892576	1671.409057617188	897.2727661132812	-83.29855346679668	1713.799560546875	829.8243408203125	-116.0435333251951	1640.262817382812	810.1464233398438	-90.91595458984357	1703.06982421875	742.7180786132812	-60.30241012573226	1684.63916015625	1447.126342773438	-533.4229125976559	1675.5849609375	1281.468383789063	-629.3347167968747	1740.129028320312	1202.380493164063	-621.4284057617185	1622.204711914062	1202.494384765625	-661.697570800781	1683.451782226562	1098.867309570313	-662.8466796874998	1627.846923828125	1088.599975585938	-609.4790039062498	1800.151245117188	931.9812011718751	-633.2926025390623	1830.21484375	874.0512084960939	-577.8114624023435	1794.404663085938	848.5471191406251	-644.0646972656248	1874.076171875	800.7766113281251	-622.3703002929685	1674.896606445312	1039.892578125	-200.8634643554685	1542.889770507812	1018.595092773438	-368.3161315917966	1659.080078125	1034.137939453125	-549.3978271484373	1644.825561523438	892.6421508789062	-186.3751068115232	1769.83251953125	633.3999633789062	-223.6500396728514	1817.647216796875	667.44873046875	-223.3563385009764	1851.80078125	572.8425903320314	-263.613555908203	1792.147827148438	557.5200805664062	-248.1507110595702	1843.928833007812	339.8711547851563	-249.3268432617187	1901.185302734375	332.8771972656251	-269.1544494628906	1915.044555664062	249.6844329833985	-288.8467407226562	1852.745239257812	240.5612182617188	-272.1557006835937	1848.175659179688	36.10141754150398	-359.5057373046875	2014.42041015625	25.78641510009772	-286.06396484375	2061.059814453125	53.75069046020516	-373.89794921875	1607.478759765625	931.1725463867189	-549.330627441406	1612.672119140625	639.4006347656251	-534.6087036132811	1566.187744140625	674.1893310546876	-545.5383300781249	1525.30859375	580.4336547851564	-515.9480590820311	1586.944580078125	564.5034790039064	-511.0682067871093	1413.485107421875	336.1706848144532	-495.2588500976562	1354.396606445312	350.0270385742189	-496.4126586914062	1304.841430664062	280.6827697753907	-475.6655883789062	1361.262939453125	250.620086669922	-468.7737121582031	1171.269897460938	150.363494873047	-397.2733459472656	1298.776977539062	20.66856956481944	-446.7680053710938	1334.3681640625	34.26625061035164	-343.8716125488281	
321	1.28	1793.774536132812	1713.264770507812	-364.1806945800777	1734.124389648438	1659.824829101562	-288.5814819335934	1735.953125	1663.500610351562	-434.6746826171872	1598.282348632812	1490.115844726562	-370.9647827148434	1521.793212890625	1291.127075195312	-316.291076660156	1530.28369140625	1297.467163085938	-449.2228393554685	1777.396118164062	1327.642211914062	-359.5938720703122	1660.1279296875	1437.036376953125	-194.0328826904294	1609.69287109375	1274.302978515625	-113.3244323730466	1668.463256835938	1187.292724609375	-104.2569198608396	1547.197265625	1192.205810546875	-111.2616424560544	1592.330932617188	1083.39794921875	-102.1955108642576	1583.436401367188	1081.0029296875	-182.4124298095701	1677.868896484375	897.3019409179688	-83.24886322021464	1720.304077148438	829.8968505859375	-116.0735015869139	1646.660766601562	810.20947265625	-91.05469512939435	1709.737670898438	742.8106689453125	-60.12652969360335	1690.502563476562	1447.7119140625	-533.1505737304684	1681.103149414062	1281.959350585938	-628.8702392578122	1745.219360351562	1203.233276367188	-621.222229003906	1627.808837890625	1203.016235351563	-661.3785400390623	1689.784790039062	1098.705322265625	-660.8133544921873	1633.3740234375	1089.246948242188	-608.997863769531	1805.177978515625	932.0915527343751	-633.5595092773435	1834.626098632812	874.0277709960939	-578.5051269531248	1798.91015625	848.6347656250001	-644.4235229492185	1878.640380859375	800.6731567382814	-623.266418457031	1681.352294921875	1040.501708984375	-200.4741973876951	1549.219848632812	1018.95654296875	-368.346740722656	1665.824951171875	1034.400268554688	-549.268615722656	1651.72412109375	894.027099609375	-185.9929809570311	1777.559936523438	634.7114868164062	-224.1605072021483	1825.190307617188	669.3465576171875	-224.5002593994139	1859.248901367188	574.5808105468751	-264.2291564941405	1799.875244140625	559.0282592773438	-247.6845092773436	1849.418334960938	340.6224365234376	-248.6570892333984	1906.280517578125	332.6412963867188	-269.5761108398437	1918.72412109375	249.2946014404297	-289.2205810546874	1856.663330078125	241.1063995361329	-271.3013916015624	1848.7392578125	36.56888961792	-359.0292053222656	2015.143188476562	24.08001327514655	-286.1005859375	2061.687255859375	51.37302780151376	-374.3511962890625	1614.1015625	930.8687744140626	-549.4122314453123	1620.6298828125	638.8382568359376	-534.6708374023436	1574.327758789062	673.1633300781251	-545.6561889648436	1533.680541992188	579.6729736328126	-516.5050659179686	1595.35595703125	563.7398681640626	-511.523223876953	1419.931884765625	336.0809326171876	-495.8556823730468	1361.110717773438	351.3977050781251	-497.2572631835937	1310.59912109375	282.4370727539064	-476.4867858886718	1366.49072265625	251.7844848632814	-470.1369628906249	1175.841674804688	154.7311401367188	-398.2233276367187	1299.218872070312	21.0153751373292	-446.6566467285156	1334.869873046875	34.41002273559578	-343.9259338378906	
322	1.284	1799.472412109375	1713.904174804688	-363.6972045898434	1740.0126953125	1660.378051757812	-288.348968505859	1741.803955078125	1664.082885742188	-434.2421264648434	1604.46337890625	1490.70751953125	-370.4291381835934	1532.330078125	1290.713256835938	-314.141418457031	1536.407592773438	1297.818237304688	-448.7904357910153	1782.642333984375	1328.239013671875	-357.5649414062497	1666.391235351562	1437.304809570312	-193.6240844726559	1616.056274414062	1274.527099609375	-113.1030654907224	1674.95458984375	1187.566284179688	-104.1306533813474	1553.647583007812	1192.330200195312	-110.9632492065427	1598.84326171875	1083.62646484375	-102.2996444702146	1589.981323242188	1081.345703125	-182.4754486083982	1684.398071289062	897.47607421875	-83.43137359619121	1726.620727539062	830.0867919921875	-116.2269210815428	1652.99951171875	810.4839477539062	-91.17707824707013	1716.00244140625	742.7484130859375	-60.43447875976546	1696.546508789062	1448.389526367188	-532.8080444335934	1686.623413085938	1282.554321289063	-628.3808593749997	1750.8037109375	1203.821166992188	-620.7962646484373	1633.098754882812	1203.640502929688	-660.5013427734373	1694.949951171875	1099.367553710938	-660.1872558593748	1638.762084960938	1089.82275390625	-608.1498413085935	1810.035278320312	932.2224121093751	-633.7665405273435	1839.653686523438	873.9110717773439	-578.9780273437498	1803.40185546875	848.8754882812501	-644.9396362304685	1883.0400390625	800.6815185546876	-624.2172851562498	1687.128540039062	1041.064331054688	-200.3122100830076	1554.349609375	1019.208618164063	-368.3238525390623	1674.122680664062	1034.84716796875	-547.8361816406248	1658.292358398438	895.486572265625	-186.0265960693357	1785.331420898438	636.3466796875	-223.9080963134764	1832.87353515625	670.9547729492188	-225.1924591064452	1866.726318359375	575.9673461914064	-264.7290649414061	1807.589233398438	560.443115234375	-247.1891174316405	1854.626586914062	341.0696105957032	-247.955337524414	1910.961303710938	332.5232543945313	-269.9260864257812	1922.186279296875	248.9483184814454	-289.5961303710937	1860.127075195312	241.6391754150391	-270.5460205078124	1849.289428710938	37.00818252563484	-358.6046447753906	2015.919555664062	23.28264045715338	-285.7824401855469	2062.375	49.11846542358407	-375.1221923828125	1620.65185546875	930.5997314453126	-549.5194091796873	1628.902709960938	638.5109863281251	-534.9323120117186	1582.314331054688	672.7686767578126	-545.8493652343749	1542.34765625	578.9655761718751	-517.2514648437499	1603.982421875	563.3490600585939	-512.2050170898436	1426.442749023438	336.6522216796876	-497.2553100585937	1367.88671875	352.4744567871095	-498.1210937499999	1316.621948242188	284.4772033691407	-477.3454284667968	1372.135009765625	252.9034729003907	-471.2635803222656	1180.674560546875	159.2269592285157	-398.9386596679687	1299.610107421875	21.59080696105967	-446.4385375976562	1335.467041015625	34.58553695678719	-343.9324645996094	
